<svg xmlns="http://www.w3.org/2000/svg" viewBox="0 0 39.19 39.4"><defs><style>.cls-1{fill:#6d6e71;}</style></defs><g id="Layer_2" data-name="Layer 2"><g id="Layer_1-2" data-name="Layer 1"><path class="cls-1" d="M39.17,19.7c0,3,.06,5.93,0,8.9a10.58,10.58,0,0,1-10,10.59c-6.24.27-12.51.28-18.76,0C4.31,39,0,34.18,0,28.12,0,22.57,0,17,0,11.48,0,5,4.41.31,10.94.13q8.61-.25,17.22,0c6.62.17,11,4.8,11,11.46,0,2.71,0,5.42,0,8.13Zm-19.63,16h0c2.78,0,5.55,0,8.32,0,4.68,0,7.7-3.11,7.71-7.8q0-8,0-16.06c0-5-2.91-8-7.87-8q-8-.06-16.06,0c-5,0-8,2.9-8,7.88q-.08,8.23,0,16.45c.05,4.48,3.09,7.47,7.6,7.54C14,35.69,16.77,35.65,19.54,35.65Z"/><path class="cls-1" d="M19.71,9.59A10.11,10.11,0,1,1,9.5,19.73,10.12,10.12,0,0,1,19.71,9.59Zm6.34,10.19a6.46,6.46,0,1,0-6.58,6.44A6.48,6.48,0,0,0,26.05,19.78Z"/><path class="cls-1" d="M32.62,9a2.33,2.33,0,0,1-2.42,2.42,2.27,2.27,0,0,1-2.32-2.34A2.24,2.24,0,0,1,30.1,6.68,2.33,2.33,0,0,1,32.62,9Z"/></g></g></svg>