<svg xmlns="http://www.w3.org/2000/svg" viewBox="0 0 18.3 31.75"><defs><style>.cls-1{fill:none;stroke:#000;stroke-miterlimit:10;stroke-width:0.75px;}</style></defs><g id="Layer_2" data-name="Layer 2"><g id="Layer_1-2" data-name="Layer 1"><path class="cls-1" d="M16.11,31.38H2.19a2.59,2.59,0,0,1-1.81-2.8q0-12.7,0-25.41A2.57,2.57,0,0,1,2.19.38H16.11a2.57,2.57,0,0,1,1.81,2.79q0,12.71,0,25.41A2.59,2.59,0,0,1,16.11,31.38Zm.1-7.2v-20H2.09v20ZM9.13,1.75c-1,0-1.93,0-2.9,0-.4,0-.6.14-.59.55s.21.55.61.55c1.93,0,3.85,0,5.78,0,.44,0,.64-.16.63-.6s-.27-.51-.64-.5C11.05,1.76,10.09,1.75,9.13,1.75Zm0,24.53a1.43,1.43,0,0,0-1.47,1.4,1.44,1.44,0,1,0,2.88.05A1.42,1.42,0,0,0,9.18,26.28Z"/></g></g></svg>