<svg xmlns="http://www.w3.org/2000/svg" viewBox="0 0 29.11 51.36"><defs><style>.cls-1{fill:#6d6e71;}</style></defs><g id="Layer_2" data-name="Layer 2"><g id="Layer_1-2" data-name="Layer 1"><path class="cls-1" d="M0,17.83H7.55c0-1.31.07-2.46,0-3.6C6.84,4.38,14.11-.46,22.7,0c6.1.35,6.1.39,6.1,6.43v5.46c-1.67,0-3.13,0-4.59,0-2.79.05-3.39.67-3.41,3.44v2.5h8.31c-.63,4.29-1.21,8.33-1.83,12.57H20.93c-.05.89-.12,1.57-.12,2.25,0,5.55,0,11.09,0,16.64,0,1.4-.39,2-1.81,2-3.76,0-7.53,0-11.48,0V30.57H0ZM23.93,26.7l.74-5.1H16.93v-2c0-1.93-.07-3.88.06-5.8a5.81,5.81,0,0,1,5.41-5.6c.81-.1,1.62-.15,2.49-.23,0-.74.09-1.31.08-1.88s-.07-1.25-.11-1.82c-8.62-1.88-13.49,2-13.49,10.48v6.91H3.91v5.06h7.42V47.57H17V26.7Z"/></g></g></svg>