<svg xmlns="http://www.w3.org/2000/svg" viewBox="0 0 45.59 31.97"><defs><style>.cls-1{fill:#6d6e71;}</style></defs><g id="Layer_2" data-name="Layer 2"><g id="Layer_1-2" data-name="Layer 1"><path class="cls-1" d="M23.15,0c4.52.29,9,.5,13.53.89,5.57.47,7.43,2.1,8.26,7.61a45.53,45.53,0,0,1-.3,16.94,6.79,6.79,0,0,1-6.28,5.65,142.28,142.28,0,0,1-30.53.09c-4.17-.51-6.25-2.33-7-6.48A45.78,45.78,0,0,1,.89,7c.75-3.54,2.6-5.51,6.23-5.86C12.45.63,17.8.37,23.15,0Zm-5,22.74L29.7,16.07,18.18,9.47Z"/></g></g></svg>