<svg xmlns="http://www.w3.org/2000/svg" viewBox="0 0 52.23 37.23"><defs><style>.cls-1{fill:#6d6e71;}</style></defs><g id="Layer_2" data-name="Layer 2"><g id="Layer_1-2" data-name="Layer 1"><path class="cls-1" d="M19.35,37.23c-4.47,0-8.88-1.32-13.72-4.09L0,29.93l6.48,0a19.67,19.67,0,0,0,7.63-1.23,8.47,8.47,0,0,1-1.51-.92A12.54,12.54,0,0,1,10.13,25c-.28-.37-.54-.73-.81-1.06l-1-1.16,1.22-1.35a9,9,0,0,1-3.37-7.48l0-2.16.92.22a10.52,10.52,0,0,1,.24-9.24l1-2.2L10.2,2.2c4.18,3.88,8.43,7.4,14.19,8v-.05A9.75,9.75,0,0,1,29.82,1.3c3.63-1.92,7.38-1.7,10.3.58,1,.77,1.61.79,3.12.08a5.71,5.71,0,0,1,2.95-.65l3.07.14-1.95,3,4.92-1-3.61,4c-.3.34-.57.67-.83,1a8,8,0,0,1-2.07,2c-.81.47-.92,1-1,2.72l0,.17A25.32,25.32,0,0,1,20.91,37.17Q20.13,37.23,19.35,37.23ZM13,32.68a20,20,0,0,0,7.67,1A21.89,21.89,0,0,0,41.2,13v-.16a7.76,7.76,0,0,1,1-3.83l-2.42.5,2.38-3.6A5.45,5.45,0,0,1,38,4.62a5.77,5.77,0,0,0-6.53-.24,6.3,6.3,0,0,0-3.58,5.86v3.57H26.12c-6.86,0-11.87-3.37-16.28-7.23-.45,2.51.44,4.69,2.77,7L17.08,18l-7-1.7c.61,1.69,2.09,3,4.73,4.29l6,2.93-7.08.4A6,6,0,0,0,14.71,25a10.42,10.42,0,0,0,2.48,1.21c.48.19,1,.38,1.48.61L21.25,28l-2.2,1.78A15.34,15.34,0,0,1,13,32.68Z"/></g></g></svg>