<svg xmlns="http://www.w3.org/2000/svg" viewBox="0 0 43.67 43.95"><defs><style>.cls-1{fill:#6d6e71;}</style></defs><g id="Layer_2" data-name="Layer 2"><g id="Layer_1-2" data-name="Layer 1"><path class="cls-1" d="M0,44c.91-3.39,1.8-6.41,2.48-9.48a5,5,0,0,0-.29-3.07,21.85,21.85,0,1,1,41.47-8.55c-.57,15-16.55,25-30.31,19a5.6,5.6,0,0,0-4.23-.31C6.24,42.4,3.29,43.08,0,44Zm5.38-5.36c1.48-.41,2.66-.67,3.8-1.06A5.86,5.86,0,0,1,14.1,38a16.83,16.83,0,0,0,11.66,1.37A18,18,0,1,0,15.68,4.87C6.07,8.3,1,19.45,5.36,28.73a9.81,9.81,0,0,1,.47,8.18C5.68,37.32,5.6,37.77,5.38,38.59Z"/><path class="cls-1" d="M28.48,32.28C21,32.16,12.6,25.42,11,18.56a6.27,6.27,0,0,1,1.36-5.8c1.48-1.72,3.46-1.4,4.41.65a7.67,7.67,0,0,1,1,2.49A5.15,5.15,0,0,1,17.23,19a1.88,1.88,0,0,0-.14,2.41,13.11,13.11,0,0,0,6,5.27c1.15.51,2.13.56,2.79-.69.9-1.72,2.16-1.77,3.67-.86.28.16.59.27.87.42,1.16.63,2.87.69,2.51,2.79a4.31,4.31,0,0,1-3.37,3.76A8.44,8.44,0,0,1,28.48,32.28Z"/></g></g></svg>